PathFileType	4	(X/Y/Z)	/Users/itak/Documents/Research/Walk-IL/dataset/trc/00327_00011.trc
DataRate	CameraRate	NumFrames	NumMarkers	Units	OrigDataRate	OrigDataStartFrame	OrigNumFrames
100.000000	100.000000	4	53	mm	100.000000	69	555
Frame#	Time	RPSI			LPSI			L3			STRN			T10			C7			CLAV			RBAK			LBAK			LSHO			LUPA			LAEL			LAOL			LWTS			LWPS			LFRA			LIFD			LHPS			LHTS			RSHO			RUPA			RAEL			RAOL			RWTS			RWPS			RFRA			RIFD			RHTS			RHPS			RBHD			LFHD			RFHD			LBHD			LHIP			RHIP			RASI			LASI			LKNE			LTHI			LANK			LTIP			LTOE			LMT1			LMT5			LHEE			RKNE			RTHI			RANK			RTIP			RTOE			RMT1			RMT5			RHEE			
		X1	Y1	Z1	X2	Y2	Z2	X3	Y3	Z3	X4	Y4	Z4	X5	Y5	Z5	X6	Y6	Z6	X7	Y7	Z7	X8	Y8	Z8	X9	Y9	Z9	X10	Y10	Z10	X11	Y11	Z11	X12	Y12	Z12	X13	Y13	Z13	X14	Y14	Z14	X15	Y15	Z15	X16	Y16	Z16	X17	Y17	Z17	X18	Y18	Z18	X19	Y19	Z19	X20	Y20	Z20	X21	Y21	Z21	X22	Y22	Z22	X23	Y23	Z23	X24	Y24	Z24	X25	Y25	Z25	X26	Y26	Z26	X27	Y27	Z27	X28	Y28	Z28	X29	Y29	Z29	X30	Y30	Z30	X31	Y31	Z31	X32	Y32	Z32	X33	Y33	Z33	X34	Y34	Z34	X35	Y35	Z35	X36	Y36	Z36	X37	Y37	Z37	X38	Y38	Z38	X39	Y39	Z39	X40	Y40	Z40	X41	Y41	Z41	X42	Y42	Z42	X43	Y43	Z43	X44	Y44	Z44	X45	Y45	Z45	X46	Y46	Z46	X47	Y47	Z47	X48	Y48	Z48	X49	Y49	Z49	X50	Y50	Z50	X51	Y51	Z51	X52	Y52	Z52	X53	Y53	Z53	

70	0.6900000000000001	915.7725219726562	976.2677001953125	224.6821136474609	919.65283203125	975.2645263671875	96.93046569824219	910.2236328125	1033.819458007812	167.0000762939453	1143.918701171875	1210.013549804688	151.8692626953125	900.803466796875	1153.841552734375	156.9494323730469	939.3672485351562	1401.194702148438	135.8466949462891	1098.062377929688	1333.443115234375	142.5041961669922	889.3858032226562	1266.391967773438	212.4273681640625	933.67529296875	1359.163208007812	34.14402008056641	1021.963806152344	1374.10107421875	-20.44716835021973	1011.393798828125	1252.583740234375	-87.885498046875	1037.682006835938	1048.698608398438	-91.35398101806641	964.5184326171875	1035.270263671875	-49.54650497436523	1124.215942382812	808.0521240234375	-17.63358879089355	1100.496459960938	796.2772216796875	-81.58028411865234	1056.169921875	944.1265869140625	-91.41150665283203	1124.12646484375	647.117431640625	-9.135167121887207	1095.657104492188	725.9557495117188	-76.25727844238281	1139.399169921875	729.1312866210938	-29.49858093261719	1007.275085449219	1382.469360351562	297.458251953125	1000.732543945312	1319.717895507812	366.2894592285156	1008.652648925781	1051.006958007812	403.9270935058594	945.0020141601562	1041.743896484375	331.5872192382812	1104.607666015625	823.7347412109375	335.4924621582031	1085.73828125	809.6876831054688	408.3110656738281	1034.728881835938	983.5115356445312	406.03369140625	1121.698974609375	653.1634521484375	342.9986572265625	1140.8935546875	725.13330078125	345.8997802734375	1103.826782226562	726.432861328125	405.9553527832031	954.1104736328125	1591.1611328125	219.0298614501953	1122.997314453125	1628.859497070312	103.0950164794922	1111.961547851562	1628.61865234375	203.0796813964844	944.400634765625	1582.830444335938	75.10639190673828	1003.2080078125	912.7160034179688	-5.263922691345215	994.2200927734375	918.1627807617188	334.5111999511719	1100.296752929688	945.185302734375	293.4721374511719	1124.408935546875	935.4953002929688	54.0257568359375	1020.227600097656	453.372802734375	7.87391996383667	1033.752197265625	591.8858032226562	-2.816100358963013	935.1187744140625	39.15410614013672	14.3014612197876	975.8333129882812	240.2591094970703	-2.500580072402954	1142.239501953125	32.14256286621094	68.62400054931641	1072.77685546875	19.85497856140137	112.774528503418	1060.447265625	33.57395172119141	-0.1487396657466888	900.7572631835938	31.94719505310059	81.32297515869141	1002.0146484375	452.6300964355469	318.2715454101562	1058.650268554688	706.9010009765625	338.2809143066406	946.35400390625	42.03744125366211	294.9251098632812	1005.728210449219	336.5730895996094	309.8676452636719	1139.676147460938	33.12850189208984	241.7559509277344	1082.886108398438	27.42476654052734	201.0755004882812	1047.987915039062	29.65813827514648	313.2946166992188	894.56298828125	41.12134552001953	247.6917724609375	
71	0.7000000000000001	916.112548828125	976.2484741210938	224.8253173828125	919.6513671875	975.276611328125	96.95862579345703	910.2587280273438	1033.806396484375	167.0348052978516	1143.916625976562	1210.035034179688	151.8943939208984	900.8001708984375	1153.833251953125	156.9721527099609	939.350830078125	1401.197021484375	135.8531799316406	1098.030029296875	1333.4521484375	142.5396728515625	889.3362426757812	1266.387329101562	212.4485931396484	933.6486206054688	1359.154052734375	34.15317153930664	1021.940612792969	1374.093994140625	-20.42075729370117	1011.397338867188	1252.569702148438	-87.85848236083984	1037.74267578125	1048.693481445312	-91.32260894775391	964.6355590820312	1035.258422851562	-49.49546813964844	1124.336791992188	808.1148071289062	-17.59892272949219	1100.6435546875	796.2799682617188	-81.54091644287109	1056.266357421875	944.132080078125	-91.39797973632812	1124.418212890625	647.239501953125	-9.173843383789062	1095.812622070312	725.9656372070312	-76.1973876953125	1139.6728515625	729.173095703125	-29.38025283813477	1007.22705078125	1382.463745117188	297.4872741699219	1000.675170898438	1319.68603515625	366.3283081054688	1008.556396484375	1050.898803710938	403.7010498046875	944.8460083007812	1041.78759765625	331.4020690917969	1104.423828125	823.695068359375	335.1640625	1085.479736328125	809.5617065429688	408.0136413574219	1034.570556640625	983.4722290039062	405.8031921386719	1121.335571289062	653.0602416992188	342.5794982910156	1140.604736328125	725.0776977539062	345.47216796875	1103.497802734375	726.361572265625	405.5663146972656	954.0036010742188	1591.178588867188	218.9965667724609	1122.939697265625	1628.859130859375	103.0408782958984	1111.906494140625	1628.628540039062	203.0850982666016	944.3421020507812	1582.801391601562	75.10540771484375	1003.199768066406	912.717041015625	-5.227018356323242	994.1932983398438	918.1531372070312	334.5426940917969	1100.2900390625	945.17822265625	293.5566101074219	1124.39599609375	935.4505615234375	54.12630844116211	1020.196960449219	453.3514404296875	7.926841735839844	1033.7783203125	591.8764038085938	-2.780812501907349	935.1199951171875	39.15390014648438	14.3027868270874	975.804443359375	240.2773132324219	-2.482421875	1142.238891601562	32.14434051513672	68.62617492675781	1072.77587890625	19.85613059997559	112.7747802734375	1060.4501953125	33.57354736328125	-0.1479020565748215	900.7257080078125	31.93673706054688	81.29347991943359	1001.981567382812	452.6275329589844	318.3150329589844	1059.109497070312	706.65771484375	338.0130920410156	946.348388671875	42.03327941894531	294.9317016601562	1005.693481445312	336.5936889648438	309.9109497070312	1139.674560546875	33.1292610168457	241.7629852294922	1082.8837890625	27.42486572265625	201.0832061767578	1047.986083984375	29.65148162841797	313.3005981445312	894.5598754882812	41.11722564697266	247.6985168457031	
72	0.71	916.49853515625	976.224365234375	224.9727325439453	919.652587890625	975.2879638671875	96.98161315917969	910.2844848632812	1033.79150390625	167.0654449462891	1143.914672851562	1210.056640625	151.9199829101562	900.8043212890625	1153.818359375	156.9958953857422	939.32958984375	1401.195556640625	135.8640441894531	1098.004272460938	1333.47119140625	142.5634002685547	889.2890014648438	1266.38330078125	212.4700317382812	933.6176147460938	1359.14208984375	34.16585922241211	1021.91015625	1374.084350585938	-20.39365005493164	1011.397583007812	1252.554565429688	-87.83110809326172	1037.801635742188	1048.682983398438	-91.28443145751953	964.7578735351562	1035.246215820312	-49.4344596862793	1124.454956054688	808.1723022460938	-17.55362701416016	1100.78857421875	796.2833251953125	-81.49193572998047	1056.359008789062	944.1395263671875	-91.38217926025391	1124.72265625	647.3865356445312	-9.207144737243652	1095.981811523438	725.9754638671875	-76.12386322021484	1139.936767578125	729.2022705078125	-29.2467155456543	1007.169555664062	1382.454833984375	297.5222473144531	1000.619384765625	1319.649291992188	366.3689880371094	1008.445190429688	1050.773803710938	403.4397277832031	944.6961669921875	1041.8515625	331.2065124511719	1104.260131835938	823.6672973632812	334.8421630859375	1085.257690429688	809.4397583007812	407.7118835449219	1034.420166015625	983.451171875	405.5882873535156	1121.007568359375	652.9271240234375	342.1736450195312	1140.365844726562	725.0150756835938	345.0754699707031	1103.206665039062	726.3050537109375	405.1724548339844	953.9039916992188	1591.198486328125	218.9679870605469	1122.88623046875	1628.853515625	102.9874801635742	1111.855712890625	1628.630493164062	203.0984802246094	944.2781982421875	1582.776000976562	75.11141967773438	1003.193054199219	912.7178344726562	-5.194254398345947	994.1649780273438	918.1378784179688	334.5723266601562	1100.284057617188	945.1730346679688	293.6440124511719	1124.381103515625	935.3956909179688	54.23456573486328	1020.180786132812	453.3298034667969	7.982133388519287	1033.816772460938	591.8646850585938	-2.744654893875122	935.1216430664062	39.15361785888672	14.30444145202637	975.786865234375	240.2896728515625	-2.461592435836792	1142.239624023438	32.14688110351562	68.62724304199219	1072.775146484375	19.85754203796387	112.774772644043	1060.452392578125	33.57361602783203	-0.1467681676149368	900.697998046875	31.9283275604248	81.26820373535156	1001.943542480469	452.6276245117188	318.3567810058594	1059.464111328125	706.4679565429688	337.8179626464844	946.342529296875	42.02877426147461	294.9395446777344	1005.65380859375	336.616455078125	309.9549865722656	1139.673828125	33.12926864624023	241.7696228027344	1082.881958007812	27.42449760437012	201.0914764404297	1047.984375	29.64468383789062	313.3063354492188	894.5553588867188	41.11341857910156	247.7034759521484	
73	0.72	916.8932495117188	976.1983642578125	225.115966796875	919.6568603515625	975.2977905273438	97.00028991699219	910.29345703125	1033.773803710938	167.0915069580078	1143.912231445312	1210.079467773438	151.9464111328125	900.81884765625	1153.795043945312	157.0218811035156	939.3027954101562	1401.18994140625	135.8786773681641	1097.985595703125	1333.502807617188	142.5733184814453	889.2445068359375	1266.379638671875	212.4911041259766	933.5823364257812	1359.126953125	34.18124008178711	1021.872741699219	1374.072509765625	-20.36649703979492	1011.395080566406	1252.538818359375	-87.80375671386719	1037.859008789062	1048.66796875	-91.24038696289062	964.8841552734375	1035.233276367188	-49.36675262451172	1124.574584960938	808.2264404296875	-17.49776458740234	1100.93359375	796.2885131835938	-81.43146514892578	1056.450439453125	944.1498413085938	-91.36310577392578	1125.028442382812	647.5408325195312	-9.222273826599121	1096.16650390625	725.9895629882812	-76.03738403320312	1140.1796875	729.2194213867188	-29.10494613647461	1007.101257324219	1382.444213867188	297.56396484375	1000.564514160156	1319.609252929688	366.4114685058594	1008.322143554688	1050.636352539062	403.1521911621094	944.5457763671875	1041.93359375	331.0078735351562	1104.107543945312	823.6576538085938	334.5354309082031	1085.072631835938	809.3234252929688	407.4196166992188	1034.278198242188	983.4462280273438	405.3936767578125	1120.721313476562	652.7643432617188	341.8005065917969	1140.179077148438	724.9468383789062	344.7288208007812	1102.959350585938	726.2567138671875	404.7947998046875	953.8129272460938	1591.21923828125	218.9457550048828	1122.837036132812	1628.843383789062	102.9352188110352	1111.80859375	1628.6259765625	203.1166839599609	944.210693359375	1582.755859375	75.12351989746094	1003.186889648438	912.7186889648438	-5.165946483612061	994.134765625	918.1168212890625	334.6010131835938	1100.278564453125	945.17041015625	293.7326049804688	1124.365844726562	935.3325805664062	54.34631729125977	1020.179260253906	453.3092041015625	8.03887939453125	1033.864868164062	591.8511352539062	-2.707927942276001	935.1240234375	39.15318298339844	14.3068675994873	975.7817993164062	240.2975463867188	-2.438708066940308	1142.24169921875	32.14990997314453	68.62702178955078	1072.774780273438	19.85873222351074	112.7746734619141	1060.454467773438	33.5745849609375	-0.1453314423561096	900.6827392578125	31.92554664611816	81.25626373291016	1001.900207519531	452.6308898925781	318.3965454101562	1059.707153320312	706.334716796875	337.6987915039062	946.3370971679688	42.02395629882812	294.9486083984375	1005.610534667969	336.6392822265625	309.9989624023438	1139.673583984375	33.12831497192383	241.7754821777344	1082.880859375	27.42411804199219	201.0998687744141	1047.983032226562	29.6376838684082	313.3118591308594	894.5506591796875	41.10989761352539	247.7072448730469	
